<svg width="15" height="16" viewBox="0 0 15 16" fill="none" xmlns="http://www.w3.org/2000/svg">
<path d="M8.94531 15.484C9.45967 15.484 9.82414 15.041 10.0885 14.3551L14.7683 2.13035C14.8969 1.8017 14.9684 1.50875 14.9684 1.26583C14.9684 0.801417 14.6826 0.515625 14.2181 0.515625C13.9753 0.515625 13.6823 0.587069 13.3536 0.715676L1.06457 5.42412C0.464409 5.65276 0 6.01713 0 6.53872C0 7.19603 0.50013 7.41753 1.18603 7.62474L6.34456 9.13939L7.84498 14.2337C8.0594 14.9553 8.28081 15.484 8.94531 15.484ZM6.66611 8.0534L1.73619 6.54585C1.62187 6.51012 1.58614 6.48153 1.58614 6.43153C1.58614 6.38154 1.61473 6.34581 1.7219 6.30295L11.3817 2.64478C11.9533 2.43043 12.5034 2.14464 13.0321 1.90172C12.5606 2.28754 11.9747 2.7448 11.5817 3.13778L6.66611 8.0534ZM9.0596 13.9121C9.00242 13.9121 8.97391 13.8622 8.93814 13.7478L7.43057 8.81794L12.3463 3.90227C12.7321 3.51645 13.2108 2.91628 13.5895 2.43043C13.3465 2.97344 13.0536 3.5236 12.8392 4.10233L9.18107 13.7621C9.13822 13.8693 9.10962 13.9121 9.0596 13.9121Z" fill="#15343D"/>
</svg>
