<svg width="16" height="15" viewBox="0 0 16 15" fill="none" xmlns="http://www.w3.org/2000/svg">
<path d="M2.52083 15C1.68056 15 1.04901 14.7882 0.626197 14.3645C0.208732 13.9463 0 13.3162 0 12.4742V2.52581C0 1.68387 0.208732 1.05378 0.626197 0.635529C1.04901 0.211843 1.68056 0 2.52083 0H13.4872C14.3275 0 14.9563 0.211843 15.3738 0.635529C15.7913 1.05378 16 1.68387 16 2.52581V12.4742C16 13.3162 15.7913 13.9463 15.3738 14.3645C14.9563 14.7882 14.3275 15 13.4872 15H2.52083ZM2.40041 13.6882H13.5916C13.9502 13.6882 14.2258 13.5905 14.4186 13.3949C14.6112 13.2048 14.7076 12.9224 14.7076 12.5476V4.86421C14.7076 4.48942 14.6112 4.20696 14.4186 4.01685C14.2258 3.8213 13.9502 3.72353 13.5916 3.72353H2.40041C2.04717 3.72353 1.77421 3.8213 1.58154 4.01685C1.38887 4.20696 1.29252 4.48942 1.29252 4.86421V12.5476C1.29252 12.9224 1.38887 13.2048 1.58154 13.3949C1.77421 13.5905 2.04717 13.6882 2.40041 13.6882ZM6.43855 6.65672C6.2994 6.65672 6.20039 6.62956 6.14152 6.57524C6.088 6.52092 6.06123 6.42315 6.06123 6.28193V5.8012C6.06123 5.65998 6.088 5.56492 6.14152 5.51604C6.20039 5.46172 6.2994 5.43456 6.43855 5.43456H6.91221C7.05137 5.43456 7.14771 5.46172 7.20123 5.51604C7.2601 5.56492 7.28953 5.65998 7.28953 5.8012V6.28193C7.28953 6.42315 7.2601 6.52092 7.20123 6.57524C7.14771 6.62956 7.05137 6.65672 6.91221 6.65672H6.43855ZM9.10389 6.65672C8.96477 6.65672 8.8684 6.62956 8.8149 6.57524C8.7614 6.52092 8.73459 6.42315 8.73459 6.28193V5.8012C8.73459 5.65998 8.7614 5.56492 8.8149 5.51604C8.8684 5.46172 8.96477 5.43456 9.10389 5.43456H9.57753C9.72209 5.43456 9.82112 5.46172 9.87462 5.51604C9.92812 5.56492 9.95493 5.65998 9.95493 5.8012V6.28193C9.95493 6.42315 9.92812 6.52092 9.87462 6.57524C9.82112 6.62956 9.72209 6.65672 9.57753 6.65672H9.10389ZM11.7773 6.65672C11.6327 6.65672 11.5337 6.62956 11.4802 6.57524C11.4267 6.52092 11.3999 6.42315 11.3999 6.28193V5.8012C11.3999 5.65998 11.4267 5.56492 11.4802 5.51604C11.5337 5.46172 11.6327 5.43456 11.7773 5.43456H12.2428C12.3874 5.43456 12.4864 5.46172 12.5399 5.51604C12.5934 5.56492 12.6202 5.65998 12.6202 5.8012V6.28193C12.6202 6.42315 12.5934 6.52092 12.5399 6.57524C12.4864 6.62956 12.3874 6.65672 12.2428 6.65672H11.7773ZM3.77322 9.32104C3.62871 9.32104 3.52969 9.29382 3.47618 9.23953C3.42266 9.18523 3.3959 9.08742 3.3959 8.94623V8.47361C3.3959 8.32703 3.42266 8.22922 3.47618 8.18031C3.52969 8.12602 3.62871 8.09893 3.77322 8.09893H4.24688C4.38604 8.09893 4.48237 8.12602 4.5359 8.18031C4.58941 8.22922 4.61617 8.32703 4.61617 8.47361V8.94623C4.61617 9.08742 4.58941 9.18523 4.5359 9.23953C4.48237 9.29382 4.38604 9.32104 4.24688 9.32104H3.77322ZM6.43855 9.32104C6.2994 9.32104 6.20039 9.29382 6.14152 9.23953C6.088 9.18523 6.06123 9.08742 6.06123 8.94623V8.47361C6.06123 8.32703 6.088 8.22922 6.14152 8.18031C6.20039 8.12602 6.2994 8.09893 6.43855 8.09893H6.91221C7.05137 8.09893 7.14771 8.12602 7.20123 8.18031C7.2601 8.22922 7.28953 8.32703 7.28953 8.47361V8.94623C7.28953 9.08742 7.2601 9.18523 7.20123 9.23953C7.14771 9.29382 7.05137 9.32104 6.91221 9.32104H6.43855ZM9.10389 9.32104C8.96477 9.32104 8.8684 9.29382 8.8149 9.23953C8.7614 9.18523 8.73459 9.08742 8.73459 8.94623V8.47361C8.73459 8.32703 8.7614 8.22922 8.8149 8.18031C8.8684 8.12602 8.96477 8.09893 9.10389 8.09893H9.57753C9.72209 8.09893 9.82112 8.12602 9.87462 8.18031C9.92812 8.22922 9.95493 8.32703 9.95493 8.47361V8.94623C9.95493 9.08742 9.92812 9.18523 9.87462 9.23953C9.82112 9.29382 9.72209 9.32104 9.57753 9.32104H9.10389ZM11.7773 9.32104C11.6327 9.32104 11.5337 9.29382 11.4802 9.23953C11.4267 9.18523 11.3999 9.08742 11.3999 8.94623V8.47361C11.3999 8.32703 11.4267 8.22922 11.4802 8.18031C11.5337 8.12602 11.6327 8.09893 11.7773 8.09893H12.2428C12.3874 8.09893 12.4864 8.12602 12.5399 8.18031C12.5934 8.22922 12.6202 8.32703 12.6202 8.47361V8.94623C12.6202 9.08742 12.5934 9.18523 12.5399 9.23953C12.4864 9.29382 12.3874 9.32104 12.2428 9.32104H11.7773ZM3.77322 11.9854C3.62871 11.9854 3.52969 11.9609 3.47618 11.9121C3.42266 11.8577 3.3959 11.7573 3.3959 11.6106V11.1379C3.3959 10.9914 3.42266 10.8936 3.47618 10.8446C3.52969 10.7904 3.62871 10.7631 3.77322 10.7631H4.24688C4.38604 10.7631 4.48237 10.7904 4.5359 10.8446C4.58941 10.8936 4.61617 10.9914 4.61617 11.1379V11.6106C4.61617 11.7573 4.58941 11.8577 4.5359 11.9121C4.48237 11.9609 4.38604 11.9854 4.24688 11.9854H3.77322ZM6.43855 11.9854C6.2994 11.9854 6.20039 11.9609 6.14152 11.9121C6.088 11.8577 6.06123 11.7573 6.06123 11.6106V11.1379C6.06123 10.9914 6.088 10.8936 6.14152 10.8446C6.20039 10.7904 6.2994 10.7631 6.43855 10.7631H6.91221C7.05137 10.7631 7.14771 10.7904 7.20123 10.8446C7.2601 10.8936 7.28953 10.9914 7.28953 11.1379V11.6106C7.28953 11.7573 7.2601 11.8577 7.20123 11.9121C7.14771 11.9609 7.05137 11.9854 6.91221 11.9854H6.43855ZM9.10389 11.9854C8.96477 11.9854 8.8684 11.9609 8.8149 11.9121C8.7614 11.8577 8.73459 11.7573 8.73459 11.6106V11.1379C8.73459 10.9914 8.7614 10.8936 8.8149 10.8446C8.8684 10.7904 8.96477 10.7631 9.10389 10.7631H9.57753C9.72209 10.7631 9.82112 10.7904 9.87462 10.8446C9.92812 10.8936 9.95493 10.9914 9.95493 11.1379V11.6106C9.95493 11.7573 9.92812 11.8577 9.87462 11.9121C9.82112 11.9609 9.72209 11.9854 9.57753 11.9854H9.10389Z" fill="#15343D"/>
</svg>
