<svg width="203" height="155" viewBox="0 0 203 155" fill="none" xmlns="http://www.w3.org/2000/svg">
<path d="M48.7808 123.169L48.4903 121.105C48.4536 120.845 48.4591 120.58 48.5068 120.32C48.7931 118.764 47.5505 117.348 45.9698 117.43L38.289 117.829L30.2389 118.607C28.3684 118.788 26.4819 118.708 24.6337 118.368L23.3734 118.136C21.8216 117.85 20.3338 117.288 18.981 116.476C17.9085 115.832 16.9333 115.039 16.0848 114.12L14.7101 112.63C13.095 110.88 11.7157 108.927 10.6075 106.819L9.90917 105.491C8.72948 103.247 7.80751 100.878 7.16087 98.4267L6.8925 97.4095C6.12772 94.5107 5.84634 91.5057 6.05971 88.5154L7.78956 79.1099C7.96261 78.169 8.20222 77.2416 8.50659 76.3347C8.95055 75.0118 9.53027 73.7384 10.2365 72.5349L11.2202 70.8585C11.8287 69.8215 12.5591 68.8612 13.396 67.998C14.2263 67.1415 15.1555 66.3868 16.1639 65.7495L37.0802 52.533L97.802 19.057C98.8078 18.5024 99.8527 18.0217 100.928 17.6187L101.735 17.3164C103.745 16.5631 105.87 16.161 108.017 16.1277C109.25 16.1086 110.482 16.2113 111.695 16.4344L115.326 17.1021C117.565 17.5139 119.689 18.4001 121.557 19.7013C122.963 20.6811 124.202 21.8811 125.226 23.2552L129.389 28.8395L132.694 34.2549C134.566 37.3209 138.507 38.3903 141.671 36.6908L147.804 33.7516L153.756 31.796L156.126 31.2837C158.755 30.7152 161.471 30.6731 164.117 31.1598L164.719 31.2704C166.871 31.6663 168.928 32.4692 170.78 33.6362C171.944 34.3702 173.017 35.2412 173.973 36.2306L175.544 37.8545C177.516 39.8942 179.241 42.1602 180.68 44.6053L181.182 45.4571C182.756 48.1296 184.044 50.9599 185.027 53.9017L186.033 56.9146C187.868 62.4093 189.055 68.0993 189.57 73.8693L189.625 74.4885L189.918 81.7634C190.148 87.4807 189.741 93.2059 188.706 98.8334L188.651 99.1361C187.918 103.118 186.858 107.032 185.481 110.839L183.594 115.575C182.018 118.651 179.935 121.437 177.431 123.818L176.285 124.907L174.363 126.43C172.875 127.609 171.226 128.57 169.466 129.283C167.225 130.19 164.838 130.683 162.422 130.736L64.6777 132.9C63.1981 132.933 61.719 132.814 60.2635 132.546L57.22 131.987C55.4929 131.669 53.8786 130.906 52.5366 129.773C51.8513 129.195 51.2461 128.528 50.737 127.789L50.38 127.271C49.7954 126.423 49.3514 125.486 49.0651 124.497C48.939 124.062 48.844 123.618 48.7808 123.169Z" fill="white"/>
<ellipse cx="112.585" cy="69.6884" rx="24.1739" ry="47.625" transform="rotate(-5.55078 112.585 69.6884)" fill="#322D36"/>
<ellipse cx="162.574" cy="79.7418" rx="21.8681" ry="43.9617" transform="rotate(-2.5319 162.574 79.7418)" fill="#322D36"/>
<ellipse cx="114.572" cy="71.5217" rx="16.865" ry="33.856" transform="rotate(-1.79631 114.572 71.5217)" fill="white"/>
<ellipse cx="161.138" cy="78.3211" rx="15.7747" ry="32.0266" transform="rotate(-1.79631 161.138 78.3211)" fill="white"/>
</svg>
