<svg width="20" height="20" viewBox="0 0 20 20" fill="none" xmlns="http://www.w3.org/2000/svg">
<path d="M10.0151 20C9.24861 20 8.59304 19.7638 8.04841 19.2916C7.50378 18.8193 7.23147 18.2289 7.23147 17.5204C7.23147 16.921 7.43318 16.4033 7.83661 15.9673C8.26021 15.5132 8.79476 15.2225 9.44024 15.0954V10.8992L5.38578 12.9973C5.42612 13.0881 5.45638 13.1971 5.47655 13.3243C5.49672 13.4514 5.50681 13.5967 5.50681 13.7602C5.50681 14.4323 5.24458 15.0136 4.72012 15.5041C4.19566 15.9946 3.55018 16.2398 2.78366 16.2398C2.03732 16.2398 1.38174 15.9946 0.816944 15.5041C0.272315 15.0136 0 14.4323 0 13.7602C0 13.0881 0.262229 12.5068 0.786687 12.0163C1.33132 11.5259 1.98689 11.2807 2.7534 11.2807C3.58043 11.2807 4.26626 11.5531 4.81089 12.0981L8.8351 10L4.81089 7.90191C4.30661 8.44687 3.63086 8.71935 2.78366 8.71935C2.01715 8.71935 1.36157 8.4832 0.816944 8.0109C0.272315 7.52044 0 6.93915 0 6.26703C0 5.57675 0.272315 4.98638 0.816944 4.49591C1.38174 4.00545 2.03732 3.76022 2.78366 3.76022C3.55018 3.76022 4.19566 4.01453 4.72012 4.52316C5.24458 5.01362 5.50681 5.58583 5.50681 6.23978C5.50681 6.40327 5.49672 6.54859 5.47655 6.67575C5.45638 6.80291 5.42612 6.9119 5.38578 7.00272L9.44024 9.10082V4.90463C8.81493 4.79564 8.29047 4.52316 7.86687 4.08719C7.44327 3.63306 7.23147 3.09718 7.23147 2.47956C7.23147 1.78928 7.50378 1.20799 8.04841 0.735695C8.59304 0.245232 9.23853 0 9.98487 0C10.7716 0 11.4271 0.245232 11.9516 0.735695C12.4962 1.22616 12.7685 1.80745 12.7685 2.47956C12.7685 3.07902 12.5567 3.60581 12.1331 4.05995C11.7095 4.51408 11.1851 4.79564 10.5598 4.90463V9.10082L14.6142 7.00272C14.5335 6.80291 14.4932 6.54859 14.4932 6.23978C14.4932 5.56767 14.7554 4.98638 15.2799 4.49591C15.8043 4.00545 16.4498 3.76022 17.2163 3.76022C18.0232 3.76022 18.6889 4.01453 19.2133 4.52316C19.7378 5.01362 20 5.59491 20 6.26703C20 6.93915 19.7277 7.52044 19.1831 8.0109C18.6384 8.4832 17.9829 8.71935 17.2163 8.71935C16.3893 8.71935 15.7136 8.44687 15.1891 7.90191L11.1346 10L15.1891 12.0981C15.7337 11.5531 16.4196 11.2807 17.2466 11.2807C18.0131 11.2807 18.6586 11.5259 19.1831 12.0163C19.7277 12.5068 20 13.0881 20 13.7602C20 14.4323 19.7277 15.0136 19.1831 15.5041C18.6384 15.9946 17.9829 16.2398 17.2163 16.2398C16.4498 16.2398 15.8043 15.9946 15.2799 15.5041C14.7554 15.0136 14.4932 14.4323 14.4932 13.7602C14.4932 13.4514 14.5335 13.1971 14.6142 12.9973L10.5598 10.8992V15.0954C11.2052 15.2225 11.7297 15.5132 12.1331 15.9673C12.5567 16.4214 12.7685 16.9391 12.7685 17.5204C12.7685 18.2289 12.4962 18.8193 11.9516 19.2916C11.4271 19.7638 10.7816 20 10.0151 20Z" fill="#FAFAF9"/>
</svg>
