<svg width="373" height="238" viewBox="0 0 373 238" fill="none" xmlns="http://www.w3.org/2000/svg">
<path d="M256.121 182.977L256.897 180.193C256.996 179.841 257.036 179.475 257.018 179.11C256.909 176.918 258.875 175.198 261.032 175.599L271.511 177.549L282.429 180.09C284.966 180.68 287.572 180.913 290.174 180.783L291.948 180.695C294.132 180.585 296.278 180.084 298.285 179.214C299.876 178.525 301.361 177.612 302.695 176.502L304.856 174.705C307.394 172.594 309.646 170.159 311.554 167.463L312.756 165.764C314.787 162.895 316.487 159.804 317.823 156.552L318.377 155.202C319.958 151.355 320.894 147.274 321.147 143.123L320.489 129.874C320.423 128.548 320.263 127.229 320.011 125.926C319.643 124.026 319.079 122.169 318.329 120.385L317.283 117.9C316.637 116.363 315.809 114.91 314.817 113.57C313.833 112.24 312.694 111.033 311.425 109.972L285.104 87.9793L207.797 30.8596C206.516 29.9134 205.169 29.0616 203.764 28.311L202.712 27.7481C200.087 26.3451 197.241 25.4042 194.298 24.9665C192.607 24.715 190.896 24.6314 189.188 24.7167L184.078 24.9721C180.927 25.1296 177.847 25.9605 175.043 27.4089C172.932 28.4994 171.01 29.9234 169.352 31.6261L162.613 38.5454L157.082 45.3888C153.951 49.2634 148.341 50.0145 144.304 47.0996L136.415 41.9383L128.595 38.1624L125.433 37.0253C121.924 35.7635 118.2 35.2097 114.476 35.3959L113.63 35.4382C110.6 35.5896 107.627 36.3182 104.87 37.585C103.136 38.3817 101.504 39.3837 100.009 40.5697L97.5546 42.516C94.4719 44.9608 91.689 47.7621 89.264 50.8615L88.4192 51.9414C85.7688 55.329 83.4811 58.9859 81.594 62.8519L79.6613 66.8114C76.1365 74.0324 73.4658 81.6403 71.7037 89.4808L71.5145 90.3222L69.7832 100.273C68.4226 108.093 67.9346 116.04 68.3283 123.968L68.3495 124.394C68.628 130.003 69.369 135.579 70.565 141.065L72.2933 147.923C73.8953 152.44 76.2488 156.653 79.2543 160.384L80.6291 162.09L82.9912 164.535C84.8205 166.429 86.9108 168.051 89.1986 169.353C92.1109 171.009 95.3001 172.122 98.6105 172.637L232.503 193.457C234.53 193.772 236.583 193.879 238.632 193.777L242.916 193.562C245.346 193.441 247.704 192.687 249.754 191.374C250.802 190.704 251.755 189.896 252.589 188.974L253.175 188.327C254.133 187.267 254.914 186.06 255.488 184.752C255.741 184.176 255.952 183.583 256.121 182.977Z" fill="#121212"/>
<path d="M146.228 90.4597C137.949 125.995 145.399 158.105 162.869 162.178C180.338 166.251 201.211 140.746 209.49 105.21C217.769 69.6748 210.319 37.5654 192.85 33.4921C175.381 29.4188 154.508 54.9241 146.228 90.4597Z" fill="#FCFCFC"/>
<path d="M77.741 97.9524C71.9124 130.678 80.5463 159.588 97.0255 162.525C113.505 165.461 131.589 141.312 137.417 108.586C143.246 75.8602 134.612 46.9502 118.133 44.0138C101.654 41.0774 83.5697 65.2265 77.741 97.9524Z" fill="#FCFCFC"/>
<path d="M152.108 96.1379C147.888 121.731 154.792 144.181 167.529 146.282C180.266 148.384 194.013 129.34 198.233 103.747C202.453 78.1537 195.549 55.7033 182.812 53.6022C170.075 51.5011 156.328 70.545 152.108 96.1379Z" fill="#121212"/>
<path d="M88.3796 97.2369C84.3873 121.447 90.8088 142.666 102.722 144.631C114.636 146.597 127.53 128.564 131.522 104.354C135.515 80.1437 129.093 58.9245 117.18 56.9592C105.266 54.9939 92.3718 73.0269 88.3796 97.2369Z" fill="#121212"/>
<path d="M132.853 69.0703C132.853 74.8693 129.652 79.5703 123.853 79.5703C118.054 79.5703 113.353 74.8693 113.353 69.0703C113.353 63.2713 118.054 58.5703 123.853 58.5703C129.652 58.5703 132.853 63.2713 132.853 69.0703Z" fill="#FCFCFC"/>
<path d="M198.853 67.5703C199.767 73.9942 197.582 79.6801 191.208 80.588C184.833 81.4959 178.924 77.0242 178.009 70.6003C177.094 64.1764 181.52 58.2328 187.894 57.3249C194.269 56.417 197.938 61.1464 198.853 67.5703Z" fill="#FCFCFC"/>
<path d="M88.7607 93C92.3698 93 95.9697 93.3684 99.5039 94.0996L103.133 94.8506C106.967 95.6439 110.694 96.8875 114.237 98.5547L114.422 98.6406C116.524 99.6298 118.55 100.774 120.482 102.062C125.648 105.506 130.08 109.938 133.523 115.104L134.428 116.46L134.438 116.476C137.138 120.864 139.257 125.587 140.737 130.522L141.544 133.213L141.56 133.267L141.569 133.321L142.839 140.3C143.336 143.034 143.586 145.809 143.586 148.588C143.586 151.249 143.356 153.905 142.9 156.526L142.86 156.761C141.989 161.773 140.342 166.62 137.981 171.127L136.464 174.023L199.921 202.604C201.047 203.111 201.449 204.508 200.764 205.536L186.994 226.189C186.365 227.134 185.076 227.366 184.157 226.7L127.521 185.688L114.082 193.368L114.03 193.397L113.976 193.421L110.91 194.718C104.231 197.544 97.0515 199 89.7988 199H88.5029C84.1513 199 79.8217 198.372 75.6494 197.136C70.6775 195.663 65.9954 193.346 61.8086 190.286L60.6484 189.438C56.8252 186.645 53.3898 183.355 50.4316 179.657L49.9844 179.099C47.8316 176.408 45.9268 173.527 44.293 170.493L43.1309 168.335C40.8102 164.025 39.2433 159.35 38.499 154.512C37.8868 150.532 37.8373 146.486 38.3525 142.492L38.6211 140.414C39.2784 135.32 40.6125 130.337 42.5879 125.596L42.9355 124.761C44.1066 121.95 45.5128 119.243 47.1387 116.669L47.2666 116.467C49.6185 112.743 52.4315 109.331 55.6387 106.312L55.7979 106.163C58.2425 103.862 60.9122 101.813 63.7666 100.046L64.6016 99.5283C68.3047 97.236 72.3307 95.5115 76.5449 94.4121C80.1383 93.4747 83.8372 93.0001 87.5508 93H88.7607ZM90.5859 107C70.1515 107 53.5859 123.566 53.5859 144C53.5859 164.434 70.1515 181 90.5859 181C111.02 181 127.586 164.435 127.586 144C127.586 123.565 111.02 107 90.5859 107Z" fill="#D97757" fill-opacity="0.9"/>
<path d="M88.7607 93L88.7607 92.5H88.7607V93ZM99.5039 94.0996L99.6052 93.61L99.6052 93.61L99.5039 94.0996ZM103.133 94.8506L103.031 95.3402L103.032 95.3402L103.133 94.8506ZM114.237 98.5547L114.024 99.0071L114.026 99.008L114.237 98.5547ZM114.422 98.6406L114.635 98.1882L114.633 98.1873L114.422 98.6406ZM120.482 102.062L120.76 101.646V101.646L120.482 102.062ZM133.523 115.104L133.939 114.826V114.826L133.523 115.104ZM134.428 116.46L134.852 116.195L134.848 116.189L134.844 116.183L134.428 116.46ZM134.438 116.476L134.863 116.214L134.861 116.211L134.438 116.476ZM140.737 130.522L141.216 130.379L141.216 130.379L140.737 130.522ZM141.544 133.213L142.024 133.073L142.023 133.069L141.544 133.213ZM141.56 133.267L142.052 133.179L142.047 133.153L142.04 133.127L141.56 133.267ZM141.569 133.321L141.077 133.409L141.077 133.411L141.569 133.321ZM142.839 140.3L143.331 140.21L143.331 140.21L142.839 140.3ZM143.586 148.588L144.086 148.588V148.588H143.586ZM142.9 156.526L142.408 156.441L142.408 156.442L142.9 156.526ZM142.86 156.761L143.353 156.846L143.353 156.845L142.86 156.761ZM137.981 171.127L138.424 171.359L138.424 171.359L137.981 171.127ZM136.464 174.023L136.021 173.791L135.775 174.261L136.259 174.479L136.464 174.023ZM199.921 202.604L200.126 202.148L200.126 202.148L199.921 202.604ZM200.764 205.536L201.18 205.813L201.18 205.813L200.764 205.536ZM186.994 226.189L187.41 226.467L187.41 226.467L186.994 226.189ZM184.157 226.7L183.864 227.105H183.864L184.157 226.7ZM127.521 185.688L127.815 185.284L127.553 185.094L127.273 185.254L127.521 185.688ZM114.082 193.368L114.328 193.803L114.33 193.802L114.082 193.368ZM114.03 193.397L114.227 193.857L114.253 193.846L114.277 193.833L114.03 193.397ZM113.976 193.421L114.17 193.881L114.173 193.88L113.976 193.421ZM110.91 194.718L110.715 194.257V194.257L110.91 194.718ZM88.5029 199L88.5029 199.5H88.5029V199ZM75.6494 197.136L75.5074 197.615H75.5074L75.6494 197.136ZM61.8086 190.286L62.1036 189.882L62.1036 189.882L61.8086 190.286ZM60.6484 189.438L60.3534 189.842L60.3535 189.842L60.6484 189.438ZM50.4316 179.657L50.8221 179.345L50.8219 179.345L50.4316 179.657ZM49.9844 179.099L49.5939 179.411L49.5941 179.411L49.9844 179.099ZM44.293 170.493L43.8527 170.73H43.8527L44.293 170.493ZM43.1309 168.335L42.6906 168.572L42.6906 168.572L43.1309 168.335ZM38.499 154.512L38.0048 154.588H38.0048L38.499 154.512ZM38.3525 142.492L37.8567 142.428L37.8566 142.428L38.3525 142.492ZM38.6211 140.414L39.117 140.478L39.117 140.478L38.6211 140.414ZM42.5879 125.596L43.0494 125.788L43.0495 125.788L42.5879 125.596ZM42.9355 124.761L42.474 124.568L42.474 124.569L42.9355 124.761ZM47.1387 116.669L46.7162 116.402L46.7159 116.402L47.1387 116.669ZM47.2666 116.467L47.6891 116.734L47.6893 116.734L47.2666 116.467ZM55.6387 106.312L55.2965 105.948L55.296 105.948L55.6387 106.312ZM55.7979 106.163L56.14 106.528L56.1405 106.527L55.7979 106.163ZM63.7666 100.046L64.0298 100.471L64.03 100.471L63.7666 100.046ZM64.6016 99.5283L64.3384 99.1032L64.3381 99.1033L64.6016 99.5283ZM76.5449 94.4121L76.4187 93.9283L76.4187 93.9283L76.5449 94.4121ZM87.5508 93V92.5H87.5508L87.5508 93ZM90.5859 107V106.5H90.5859L90.5859 107ZM90.5859 181L90.5859 181.5H90.5859V181ZM88.7607 93L88.7607 93.5C92.3357 93.5 95.9018 93.8649 99.4026 94.5892L99.5039 94.0996L99.6052 93.61C96.0377 92.8719 92.4038 92.5 88.7607 92.5L88.7607 93ZM99.5039 94.0996L99.4026 94.5892L103.031 95.3402L103.133 94.8506L103.234 94.361L99.6052 93.61L99.5039 94.0996ZM103.133 94.8506L103.032 95.3402C106.827 96.1256 110.517 97.3567 114.024 99.0071L114.237 98.5547L114.45 98.1023C110.872 96.4183 107.107 95.1623 103.234 94.361L103.133 94.8506ZM114.237 98.5547L114.026 99.008L114.211 99.0939L114.422 98.6406L114.633 98.1873L114.448 98.1014L114.237 98.5547ZM114.422 98.6406L114.209 99.093C116.288 100.072 118.293 101.204 120.205 102.479L120.482 102.062L120.76 101.646C118.806 100.344 116.759 99.1879 114.635 98.1882L114.422 98.6406ZM120.482 102.062L120.205 102.479C125.315 105.885 129.701 110.271 133.107 115.381L133.523 115.104L133.939 114.826C130.459 109.606 125.98 105.127 120.76 101.646L120.482 102.062ZM133.523 115.104L133.107 115.381L134.012 116.737L134.428 116.46L134.844 116.183L133.939 114.826L133.523 115.104ZM134.428 116.46L134.004 116.725L134.014 116.741L134.438 116.476L134.861 116.211L134.852 116.195L134.428 116.46ZM134.438 116.476L134.012 116.738C136.69 121.089 138.79 125.772 140.258 130.666L140.737 130.522L141.216 130.379C139.723 125.401 137.587 120.639 134.863 116.214L134.438 116.476ZM140.737 130.522L140.258 130.666L141.065 133.356L141.544 133.213L142.023 133.069L141.216 130.379L140.737 130.522ZM141.544 133.213L141.064 133.353L141.079 133.406L141.56 133.267L142.04 133.127L142.024 133.073L141.544 133.213ZM141.56 133.267L141.067 133.354L141.077 133.409L141.569 133.321L142.062 133.233L142.052 133.179L141.56 133.267ZM141.569 133.321L141.077 133.411L142.347 140.389L142.839 140.3L143.331 140.21L142.061 133.232L141.569 133.321ZM142.839 140.3L142.347 140.389C142.839 143.094 143.086 145.838 143.086 148.588H143.586H144.086C144.086 145.779 143.833 142.974 143.331 140.21L142.839 140.3ZM143.586 148.588L143.086 148.588C143.086 151.22 142.859 153.847 142.408 156.441L142.9 156.526L143.393 156.612C143.854 153.962 144.086 151.277 144.086 148.588L143.586 148.588ZM142.9 156.526L142.408 156.442L142.367 156.677L142.86 156.761L143.353 156.845L143.393 156.611L142.9 156.526ZM142.86 156.761L142.368 156.675C141.505 161.637 139.875 166.434 137.539 170.895L137.981 171.127L138.424 171.359C140.809 166.806 142.472 161.91 143.353 156.846L142.86 156.761ZM137.981 171.127L137.539 170.895L136.021 173.791L136.464 174.023L136.907 174.255L138.424 171.359L137.981 171.127ZM136.464 174.023L136.259 174.479L199.716 203.059L199.921 202.604L200.126 202.148L136.669 173.568L136.464 174.023ZM199.921 202.604L199.716 203.059C200.56 203.44 200.861 204.488 200.348 205.259L200.764 205.536L201.18 205.813C202.036 204.528 201.534 202.782 200.126 202.148L199.921 202.604ZM200.764 205.536L200.348 205.259L186.578 225.912L186.994 226.189L187.41 226.467L201.18 205.813L200.764 205.536ZM186.994 226.189L186.578 225.912C186.106 226.62 185.14 226.794 184.45 226.295L184.157 226.7L183.864 227.105C185.013 227.937 186.623 227.647 187.41 226.467L186.994 226.189ZM184.157 226.7L184.45 226.295L127.815 185.284L127.521 185.688L127.228 186.093L183.864 227.105L184.157 226.7ZM127.521 185.688L127.273 185.254L113.834 192.934L114.082 193.368L114.33 193.802L127.77 186.123L127.521 185.688ZM114.082 193.368L113.836 192.933L113.784 192.962L114.03 193.397L114.277 193.833L114.328 193.803L114.082 193.368ZM114.03 193.397L113.833 192.938L113.779 192.961L113.976 193.421L114.173 193.88L114.227 193.857L114.03 193.397ZM113.976 193.421L113.781 192.96L110.715 194.257L110.91 194.718L111.105 195.178L114.17 193.881L113.976 193.421ZM110.91 194.718L110.715 194.257C104.098 197.057 96.9845 198.5 89.7988 198.5V199V199.5C97.1184 199.5 104.364 198.03 111.105 195.178L110.91 194.718ZM89.7988 199V198.5H88.5029V199V199.5H89.7988V199ZM88.5029 199L88.5029 198.5C84.1994 198.5 79.9177 197.879 75.7915 196.656L75.6494 197.136L75.5074 197.615C79.7258 198.865 84.1032 199.5 88.5029 199.5L88.5029 199ZM75.6494 197.136L75.7915 196.656C70.8744 195.199 66.2441 192.908 62.1036 189.882L61.8086 190.286L61.5136 190.69C65.7467 193.783 70.4805 196.126 75.5074 197.615L75.6494 197.136ZM61.8086 190.286L62.1036 189.882L60.9434 189.035L60.6484 189.438L60.3535 189.842L61.5136 190.69L61.8086 190.286ZM60.6484 189.438L60.9434 189.035C57.1559 186.267 53.7526 183.008 50.8221 179.345L50.4316 179.657L50.0412 179.97C53.027 183.702 56.4944 187.022 60.3534 189.842L60.6484 189.438ZM50.4316 179.657L50.8219 179.345L50.3747 178.786L49.9844 179.099L49.5941 179.411L50.0413 179.97L50.4316 179.657ZM49.9844 179.099L50.3748 178.786C48.2409 176.119 46.3527 173.264 44.7332 170.256L44.293 170.493L43.8527 170.73C45.5008 173.791 47.4224 176.696 49.5939 179.411L49.9844 179.099ZM44.293 170.493L44.7332 170.256L43.5711 168.098L43.1309 168.335L42.6906 168.572L43.8527 170.73L44.293 170.493ZM43.1309 168.335L43.5711 168.098C41.2774 163.838 39.7288 159.217 38.9932 154.436L38.499 154.512L38.0048 154.588C38.7578 159.482 40.3429 164.212 42.6906 168.572L43.1309 168.335ZM38.499 154.512L38.9932 154.436C38.3881 150.502 38.3392 146.503 38.8484 142.556L38.3525 142.492L37.8566 142.428C37.3354 146.468 37.3854 150.562 38.0048 154.588L38.499 154.512ZM38.3525 142.492L38.8484 142.556L39.117 140.478L38.6211 140.414L38.1252 140.35L37.8567 142.428L38.3525 142.492ZM38.6211 140.414L39.117 140.478C39.7686 135.428 41.0911 130.488 43.0494 125.788L42.5879 125.596L42.1264 125.403C40.1338 130.185 38.7882 135.212 38.1252 140.35L38.6211 140.414ZM42.5879 125.596L43.0495 125.788L43.3971 124.953L42.9355 124.761L42.474 124.569L42.1263 125.404L42.5879 125.596ZM42.9355 124.761L43.3971 124.953C44.5573 122.168 45.9505 119.486 47.5614 116.936L47.1387 116.669L46.7159 116.402C45.0751 119 43.6559 121.732 42.474 124.568L42.9355 124.761ZM47.1387 116.669L47.5612 116.936L47.6891 116.734L47.2666 116.467L46.8441 116.199L46.7162 116.402L47.1387 116.669ZM47.2666 116.467L47.6893 116.734C50.0187 113.046 52.8049 109.666 55.9814 106.677L55.6387 106.312L55.296 105.948C52.0582 108.996 49.2182 112.44 46.8439 116.2L47.2666 116.467ZM55.6387 106.312L55.9809 106.677L56.14 106.528L55.7979 106.163L55.4557 105.799L55.2965 105.948L55.6387 106.312ZM55.7979 106.163L56.1405 106.527C58.5607 104.249 61.2039 102.22 64.0298 100.471L63.7666 100.046L63.5034 99.6208C60.6206 101.405 57.9242 103.475 55.4552 105.799L55.7979 106.163ZM63.7666 100.046L64.03 100.471L64.865 99.9533L64.6016 99.5283L64.3381 99.1033L63.5032 99.6209L63.7666 100.046ZM64.6016 99.5283L64.8647 99.9535C68.5254 97.6874 72.5052 95.9827 76.6711 94.8959L76.5449 94.4121L76.4187 93.9283C72.1562 95.0403 68.084 96.7845 64.3384 99.1032L64.6016 99.5283ZM76.5449 94.4121L76.6711 94.8959C80.2233 93.9693 83.8798 93.5001 87.5508 93.5L87.5508 93L87.5508 92.5C83.7946 92.5001 80.0533 92.9802 76.4187 93.9283L76.5449 94.4121ZM87.5508 93V93.5H88.7607V93V92.5H87.5508V93ZM90.5859 107L90.5859 106.5C69.8754 106.5 53.0859 123.289 53.0859 144H53.5859H54.0859C54.0859 123.842 70.4277 107.5 90.5859 107.5L90.5859 107ZM53.5859 144H53.0859C53.0859 164.711 69.8754 181.5 90.5859 181.5L90.5859 181L90.5859 180.5C70.4277 180.5 54.0859 164.158 54.0859 144H53.5859ZM90.5859 181V181.5C111.297 181.5 128.086 164.711 128.086 144H127.586H127.086C127.086 164.158 110.744 180.5 90.5859 180.5V181ZM127.586 144H128.086C128.086 123.289 111.297 106.5 90.5859 106.5V107V107.5C110.744 107.5 127.086 123.842 127.086 144H127.586Z" fill="black"/>
<circle cx="90.5862" cy="144" r="37" fill="white" fill-opacity="0.5"/>
<path d="M234.281 167.215L236.854 163.098C241.522 155.628 239.156 145.782 231.603 141.25L228.18 139.197C222.671 135.891 215.511 138.108 212.834 143.949C212.514 144.648 212.12 145.31 211.659 145.925L205.506 154.129C203.075 157.371 200.379 160.406 197.448 163.204L194.84 165.693C192.192 168.221 189.242 170.413 186.056 172.218L177.216 177.227C176.322 177.734 175.313 178 174.285 178C173.029 178 171.805 177.602 170.789 176.863L169.331 175.803C167.72 174.631 165.779 174 163.787 174C162.511 174 161.248 174.259 160.074 174.762L159.56 174.983C158.757 175.327 157.994 175.756 157.284 176.264L155.591 177.472C155.101 177.822 154.662 178.238 154.286 178.709L154.069 178.979C153.282 179.964 152.853 181.187 152.853 182.448V184.213C152.853 186.305 151.157 188 149.066 188C148.277 188 147.507 188.247 146.865 188.705L145.459 189.71C144.727 190.232 144.097 190.883 143.598 191.631C142.786 192.85 142.353 194.281 142.353 195.746V198.67C142.353 199.876 142.606 201.07 143.096 202.173L143.352 202.749C143.999 204.204 145.132 205.39 146.556 206.102L148.735 207.191C149.726 207.687 150.353 208.7 150.353 209.809C150.353 210.263 150.458 210.712 150.662 211.118L151.283 212.36C152.291 214.376 154.033 215.929 156.152 216.7L156.666 216.887C157.782 217.292 158.96 217.5 160.147 217.5H161.782C165.107 217.5 168.376 216.648 171.279 215.027L183.853 208L200.348 197.107C207.006 192.71 213.284 187.764 219.118 182.319L230.882 171.339C232.19 170.118 233.333 168.732 234.281 167.215Z" fill="#121212" stroke="white"/>
<ellipse cx="229.883" cy="140.938" rx="21" ry="21.5" fill="#121212"/>
<path d="M159 27.5L161.331 22.2542C162.434 19.7726 163.985 17.5153 165.905 15.595L166.959 14.5413C168.307 13.1935 169.905 12.1228 171.665 11.3897L172.195 11.1689C174.037 10.4012 176.039 10.0944 178.027 10.2751C179.659 10.4235 181.245 10.8974 182.691 11.6687L185.142 12.9758C187.04 13.988 188.805 15.2318 190.397 16.6787L193.5 19.5M144.5 26.5L141.813 21.1252C141.272 20.0434 140.647 19.0056 139.944 18.0214L137.554 14.6752C136.539 13.2549 135.139 12.1555 133.518 11.5072C131.875 10.85 130.076 10.6848 128.341 11.0319L128.08 11.084C126.708 11.3583 125.41 11.9166 124.267 12.7231L120.305 15.5203C118.44 16.8365 116.717 18.3431 115.164 20.0156L111 24.5" stroke="black" stroke-width="6"/>
</svg>
